<?xml version="1.0" encoding="UTF-8" standalone="no"?>
<!-- Created with Inkscape (http://www.inkscape.org/) -->

<svg
   width="50"
   height="50"
   viewBox="0 0 13.229166 13.229167"
   version="1.1"
   id="svg5"
   xml:space="preserve"
   inkscape:version="1.2 (dc2aedaf03, 2022-05-15)"
   sodipodi:docname="print.svg"
   xmlns:inkscape="http://www.inkscape.org/namespaces/inkscape"
   xmlns:sodipodi="http://sodipodi.sourceforge.net/DTD/sodipodi-0.dtd"
   xmlns="http://www.w3.org/2000/svg"
   xmlns:svg="http://www.w3.org/2000/svg"><sodipodi:namedview
     id="namedview7"
     pagecolor="#ffffff"
     bordercolor="#000000"
     borderopacity="0.25"
     inkscape:showpageshadow="2"
     inkscape:pageopacity="0.0"
     inkscape:pagecheckerboard="0"
     inkscape:deskcolor="#d1d1d1"
     inkscape:document-units="mm"
     showgrid="false"
     inkscape:zoom="8.4359982"
     inkscape:cx="31.235189"
     inkscape:cy="17.069705"
     inkscape:window-width="1920"
     inkscape:window-height="1017"
     inkscape:window-x="-8"
     inkscape:window-y="-8"
     inkscape:window-maximized="1"
     inkscape:current-layer="layer1" /><defs
     id="defs2" /><g
     inkscape:label="Warstwa 1"
     inkscape:groupmode="layer"
     id="layer1"><path
       style="fill:#010101;stroke:none;stroke-width:0.00300915"
       d="M 2.9040251,7.5833546 H 2.2781229 c -0.1293913,0 -0.2627263,-0.00912 -0.3911903,0.00685 C 1.6663448,7.6176786 1.4579553,7.7245934 1.3064401,7.8872686 1.179464,8.0235823 1.0945144,8.1972715 1.0637385,8.3807692 1.0334008,8.561649 1.0503887,8.7544753 1.0503887,8.9374625 v 2.1425165 c 0,0.162645 -0.013533,0.332362 0.010313,0.493501 0.040182,0.271426 0.1981275,0.517302 0.4290282,0.665955 0.1158581,0.07456 0.2485205,0.124248 0.3851676,0.142664 0.1559991,0.02101 0.3182247,0.0099 0.475447,0.0099 h 1.3029618 5.3171685 1.8626662 c 0.172335,0 0.352882,0.01496 0.523598,-0.01032 0.224297,-0.03319 0.428294,-0.143416 0.580247,-0.311658 0.123715,-0.136946 0.206729,-0.316623 0.23138,-0.49952 0.02245,-0.166675 0.0099,-0.340515 0.0099,-0.508546 V 8.9615483 c 0,-0.1906893 0.01828,-0.3922724 -0.01336,-0.5807657 -0.03449,-0.205856 -0.136882,-0.39444 -0.287551,-0.5385181 -0.144655,-0.1383 -0.337484,-0.2273717 -0.535641,-0.2520465 -0.124572,-0.015497 -0.253698,-0.00685 -0.379156,-0.00685 H 10.324614 V 4.4297683 3.5571145 3.3163829 c 0,-0.026661 0.0094,-0.07535 -0.003,-0.099182 -0.01069,-0.020463 -0.0397,-0.037735 -0.05709,-0.052539 C 10.221168,3.1277693 10.178235,3.090396 10.135077,3.0533223 9.9954545,2.9333482 9.8558014,2.8133426 9.7168108,2.6926451 9.2238765,2.2645339 8.7302597,1.8367489 8.2333002,1.4133317 8.085158,1.287125 7.9371382,1.1604129 7.7909527,1.0319704 7.7156638,0.96580528 7.6323957,0.87007184 7.5321599,0.84430162 7.4526012,0.82384583 7.3580825,0.83684203 7.2763838,0.83684203 H 6.7798727 5.1910413 4.3575138 c -0.166414,0 -0.3372712,-0.0106768 -0.5025337,0.009885 -0.2974257,0.0370065 -0.5813689,0.1830891 -0.7646792,0.4234326 -0.095813,0.1256349 -0.1597901,0.276285 -0.179346,0.4333175 -0.016703,0.1343011 -0.00683,0.2739829 -0.00683,0.409244 v 0.9689476 4.501691 M 7.2854534,1.2280322 v 1.0020469 c 0,0.2287251 -0.015765,0.4577224 0.082178,0.6710411 0.038735,0.084376 0.090819,0.1621024 0.1520554,0.2317037 0.1834733,0.2084141 0.4458123,0.3351894 0.7196669,0.3692834 0.1992995,0.024795 0.407108,0.00988 0.6078546,0.00988 h 1.0893136 c -0.00804,0.1251509 0,0.2536719 0,0.379153 v 0.7643245 2.2959833 c 0,0.2980259 -0.00303,0.5958418 -0.00303,0.8937179 v 0.2317048 c 0,0.019288 0.00907,0.070082 -0.00303,0.08546 -0.00558,0.00708 -0.019104,0.00481 -0.026991,0.00481 H 9.8312008 9.5302801 8.302546 3.2953173 c 0,-1.6688153 -0.00306,-3.3381725 -0.00306,-5.007229 V 2.0675855 c 0,-0.1084494 -0.010649,-0.2238529 0.00734,-0.331007 0.022501,-0.134347 0.098728,-0.2524612 0.2032942,-0.3381853 0.1159702,-0.095074 0.2632359,-0.1524172 0.4122544,-0.1668401 0.086417,-0.00837 0.1749539,-0.00352 0.261799,-0.00352 h 0.4603953 2.6480522 m 0.3941963,0.2317038 0.4152709,0.357241 0.8515855,0.7342691 0.4363247,0.3761437 0.1474488,0.1271961 0.072218,0.066202 H 8.7207619 c -0.170317,0 -0.3502033,0.016942 -0.5175752,-0.018687 C 8.0002186,3.0588946 7.8075737,2.9306752 7.7196484,2.7386306 7.6722209,2.6350554 7.6765825,2.5276587 7.6765825,2.4166515 V 2.0104156 1.6222359 1.5139067 c 0,-0.016908 -0.00357,-0.03847 0.00295,-0.054166 M 4.0775857,2.0976806 V 2.4858615 H 6.7677661 V 2.0976806 H 4.0775857 m 0,1.2006524 V 3.6895223 H 6.7677661 V 3.298333 H 4.0775857 m 0,1.2036598 V 4.8901737 H 9.1510131 V 4.5019928 H 4.0775857 m 0,1.2036607 V 6.0938344 H 9.1510131 V 5.7056535 H 4.0775857 m 0,1.2006517 V 7.2974954 H 9.1510131 V 6.9063052 H 4.0775857 M 2.904015,7.9715447 v 0.583776 h 7.420569 v -0.583776 h 0.680076 c 0.10637,0 0.21695,-0.00866 0.321975,0.010292 0.119527,0.021605 0.230167,0.084647 0.312682,0.1732673 0.0845,0.090755 0.135495,0.2111522 0.147203,0.3340153 0.0058,0.061086 0,0.1251806 0,0.1865672 v 0.3279977 1.9800228 0.349061 c 0,0.07962 0.0048,0.159786 -0.01473,0.237723 -0.02513,0.100565 -0.07724,0.189637 -0.148264,0.264685 -0.09227,0.0975 -0.225683,0.152565 -0.357581,0.165113 -0.06993,0.0066 -0.143383,5.44e-4 -0.213648,5.44e-4 h -0.514573 v -0.370125 c 0,-0.16767 0.0089,-0.329051 -0.141426,-0.440901 -0.02732,-0.02034 -0.05829,-0.03665 -0.09027,-0.04827 -0.06783,-0.02467 -0.139806,-0.01938 -0.210642,-0.01938 H 9.7733995 8.64798 4.8293634 3.5143663 3.1442403 c -0.077786,0 -0.1579762,-0.0069 -0.231706,0.02287 -0.030929,0.01252 -0.06096,0.0288 -0.087263,0.04937 -0.1446773,0.113386 -0.135414,0.270794 -0.135414,0.436296 V 12.00082 H 2.1752987 c -0.070265,0 -0.1437194,0.0061 -0.2136581,-5.46e-4 C 1.8297323,11.987731 1.6963564,11.93269 1.6040695,11.835163 1.5330404,11.760117 1.4809251,11.671043 1.4557949,11.570478 1.4360759,11.49161 1.4410591,11.410331 1.4410591,11.329746 V 10.980696 9.0036838 8.675686 c 0,-0.061387 -0.0053,-0.125481 0.00102,-0.1865671 0.011699,-0.1228631 0.062703,-0.24326 0.1471944,-0.3340153 0.082514,-0.08862 0.193185,-0.151662 0.3126913,-0.1732673 0.1050456,-0.018958 0.2156045,-0.010292 0.321975,-0.010292 h 0.6800659 m 8.0675343,0.6031546 c -0.03737,0.00584 -0.07354,0.019349 -0.105321,0.039902 -0.02744,0.017724 -0.05055,0.040563 -0.06948,0.067104 -0.133334,0.1869289 0.03344,0.4427971 0.256051,0.4084321 0.03599,-0.00558 0.07201,-0.019079 0.102315,-0.039388 0.185665,-0.1244885 0.132368,-0.4187836 -0.08426,-0.471655 -0.03079,-0.00752 -0.06792,-0.00929 -0.09931,-0.00439 m 0.01505,1.1524758 c -0.04604,0.00623 -0.09136,0.019588 -0.129392,0.047333 -0.02721,0.019826 -0.05201,0.045768 -0.06918,0.074751 -0.109744,0.1852442 0.03876,0.4229972 0.255746,0.3963362 0.03704,-0.0045 0.07382,-0.0173 0.105321,-0.03735 0.187233,-0.119013 0.14586,-0.4220642 -0.07523,-0.4743934 -0.02816,-0.00664 -0.0584,-0.010618 -0.08726,-0.00672 m -0.01505,1.1555434 c -0.03749,0.0059 -0.07356,0.0191 -0.105321,0.03991 -0.02843,0.0186 -0.05227,0.04222 -0.07158,0.07011 -0.129575,0.186958 0.0374,0.439517 0.258151,0.405423 0.03524,-0.0054 0.06939,-0.01851 0.0993,-0.03791 0.189189,-0.122562 0.136647,-0.419957 -0.08124,-0.473129 -0.03079,-0.0075 -0.06792,-0.0093 -0.09931,-0.0044 m -0.824499,0.630599 v 0.487481 H 3.0815471 v -0.487481 z"
       id="path302" /></g></svg>
